<?xml version="1.0" standalone="no"?>
<svg viewBox="0 0 200 200" xmlns="http://www.w3.org/2000/svg">
  <path fill="#7FA35C" d="M35.2,-57.9C40.6,-51.2,36.6,-33.1,35.1,-20.6C33.7,-8.2,34.8,-1.5,40,10.2C45.2,21.8,54.4,38.5,50.1,43.1C45.7,47.7,27.7,40.3,14,41.6C0.2,42.9,-9.2,53,-17.1,53C-25,53.1,-31.4,42.9,-33.9,33.2C-36.4,23.5,-34.9,14.1,-43.7,1.8C-52.5,-10.6,-71.6,-26,-71,-34.6C-70.5,-43.2,-50.3,-45.1,-35.2,-47.3C-20.1,-49.6,-10,-52.2,2.4,-56C14.9,-59.7,29.7,-64.6,35.2,-57.9Z" transform="translate(100 100)" />
</svg>
